# xmcd
# Copyright (C) 1995-1998 Ti Kan
#
# Track frame offsets:
#       150
#       11585
#       24747
#       33185
#       44085
#       57250
#       68062
#       80400
#       91237
#       102635
#       109272
#       119725
#       130262
#       142730
#       155177
#       165970
#
# Disc length: 2360 seconds
#
# Revision: 0
# Processed by: cddbd v1.5.2PL0 Copyright (c) Steve Scherf et al.
# Submitted via: CD-Import v1.0
#
DISCID=d9093610
DTITLE=Rudolph Dietrich - Monsieur L'ti Bon Ange
DYEAR=1995
DGENRE=
TTITLE0=L'ti Bon Ange
TTITLE1=I Messed It Up
TTITLE2=Raise Your Head and Holler
TTITLE3=Sweet Smell In The Air
TTITLE4=Clear Water
TTITLE5=Vastapol
TTITLE6=Evelyne
TTITLE7=Before You Came Into My Life
TTITLE8=Slow Me Down
TTITLE9=Drivin' Miss Kitty
TTITLE10=(Not A) Travellin' Man
TTITLE11=Big Led Blues
TTITLE12=I Ain't Everybody's Darling
TTITLE13=If I Had A Religion For A Day
TTITLE14=Yerushalayim
TTITLE15=Wake Up
EXTD=
EXTT0=
EXTT1=
EXTT2=
EXTT3=
EXTT4=
EXTT5=
EXTT6=
EXTT7=
EXTT8=
EXTT9=
EXTT10=
EXTT11=
EXTT12=
EXTT13=
EXTT14=
EXTT15=
PLAYORDER=
